<svg version="1.1" xmlns="http://www.w3.org/2000/svg" viewBox="0 0 584.5 283" width="584.5" height="283">
  <!-- svg-source:excalidraw -->
  
  <defs>
    <style class="style-fonts">
      @font-face {
        font-family: "Virgil";
        src: url("https://excalidraw.com/Virgil.woff2");
      }
      @font-face {
        font-family: "Cascadia";
        src: url("https://excalidraw.com/Cascadia.woff2");
      }
    </style>
  </defs>
  <rect x="0" y="0" width="584.5" height="283" fill="#ffffff"></rect><g stroke-linecap="round" transform="translate(15.5 10.5) rotate(0 95.5 90)"><path d="M-1.35 -0.02 C60.41 -1.12, 117.31 -0.71, 192 -1.05 M-0.34 0.43 C45.46 0.05, 91.37 -0.89, 190.52 0.99 M192.07 1.24 C190.23 68.47, 191.55 135.7, 189.09 178.09 M191.96 0.92 C192.26 47.08, 191.54 96.2, 191.8 179.94 M191.72 178.93 C146.62 178.44, 103.06 180.93, 0.93 178.82 M191.9 180.41 C148.21 182.18, 105.85 182.64, 0.36 179.54 M-1.03 181.51 C1.35 141.91, -0.39 103.67, 1.68 1.59 M-0.88 179.79 C0.67 108.23, 0.85 36.93, -0.04 -0.11" stroke="#000000" stroke-width="1" fill="none"></path></g><g transform="translate(10 237) rotate(0 99 18)"><text x="99" y="25" font-family="Virgil, Segoe UI Emoji" font-size="28px" fill="#000000" text-anchor="middle" style="white-space: pre;" direction="ltr">Your Computer</text></g><g transform="translate(431 237) rotate(0 46 18)"><text x="46" y="25" font-family="Virgil, Segoe UI Emoji" font-size="28px" fill="#1864ab" text-anchor="middle" style="white-space: pre;" direction="ltr">GitHub</text></g><g transform="translate(83 81) rotate(0 29 18)"><text x="29" y="25" font-family="Virgil, Segoe UI Emoji" font-size="28px" fill="#000000" text-anchor="middle" style="white-space: pre;" direction="ltr">main</text></g><g stroke-linecap="round" transform="translate(383.5 10) rotate(0 95.5 90)"><path d="M1.01 -1.97 C44.64 0.5, 90.9 3.12, 191.42 1.8 M-0.52 0.73 C45.39 1.34, 90.48 0.18, 191.48 0.64 M189.18 -0.65 C190.78 41.34, 191.26 84.55, 192.28 178.1 M191.57 -0.86 C191.82 38.86, 190.7 77.11, 191.92 180.68 M192.53 179.4 C139.67 179.51, 82.44 180.22, 1.03 180.25 M191.87 180.24 C135.08 180.58, 78.6 181.35, -0.1 180.04 M1.02 178.92 C2.14 127.51, 1.9 78.43, 0.14 -1.03 M-0.09 180.02 C-0.99 134.55, -2.52 89.7, 0.44 0.99" stroke="#1864ab" stroke-width="1" fill="none"></path></g><g transform="translate(409.5 82) rotate(0 69.5 18)"><text x="69.5" y="25" font-family="Virgil, Segoe UI Emoji" font-size="28px" fill="#1864ab" text-anchor="middle" style="white-space: pre;" direction="ltr">origin/main</text></g><g stroke-linecap="round"><g transform="translate(227 149) rotate(0 71.11118962590115 -0.7080128371715659)"><path d="M0.12 0.06 C23.89 -0.27, 119.57 -1.28, 143.51 -1.47 M-1.28 -0.96 C22.31 -1.17, 118.72 -0.37, 142.82 -0.19" stroke="#000000" stroke-width="4" fill="none"></path></g><g transform="translate(227 149) rotate(0 71.11118962590115 -0.7080128371715659)"><path d="M114.65 10.7 C124.17 7.31, 135.25 4.29, 144.15 1.15 M115.07 9.52 C124.6 5.7, 137.17 2.94, 142.29 0.22" stroke="#000000" stroke-width="4" fill="none"></path></g><g transform="translate(227 149) rotate(0 71.11118962590115 -0.7080128371715659)"><path d="M114.81 -9.82 C124.36 -5.62, 135.39 -1.05, 144.15 1.15 M115.23 -11 C124.56 -6.85, 137.07 -1.65, 142.29 0.22" stroke="#000000" stroke-width="4" fill="none"></path></g></g><g transform="translate(261.5 105.5) rotate(0 30.5 18)"><text x="30.5" y="25" font-family="Virgil, Segoe UI Emoji" font-size="28px" fill="#000000" text-anchor="middle" style="white-space: pre;" direction="ltr">push</text></g><g stroke-linecap="round"><g transform="translate(355.88881037409874 61.720958694815636) rotate(0 -65.22309367250188 0.18798541924917345)"><path d="M0.12 -0.06 C-21.76 0.17, -108.2 0.3, -130.09 0.32 M-1.28 -1.13 C-23.34 -0.68, -108.75 1.16, -130.56 1.51" stroke="#000000" stroke-width="4" fill="none"></path></g><g transform="translate(355.88881037409874 61.720958694815636) rotate(0 -65.22309367250188 0.18798541924917345)"><path d="M-102.66 -7.78 C-114.87 -5.41, -126.3 -0.86, -131.71 0.12 M-102.33 -9.35 C-112.62 -5.07, -123.35 -1.43, -130.98 0.72" stroke="#000000" stroke-width="4" fill="none"></path></g><g transform="translate(355.88881037409874 61.720958694815636) rotate(0 -65.22309367250188 0.18798541924917345)"><path d="M-102.27 12.74 C-114.46 6.99, -126.04 3.42, -131.71 0.12 M-101.94 11.16 C-112.57 7.64, -123.45 3.48, -130.98 0.72" stroke="#000000" stroke-width="4" fill="none"></path></g></g><g transform="translate(272.88881037409874 19.220958694815636) rotate(0 23 18)"><text x="23" y="25" font-family="Virgil, Segoe UI Emoji" font-size="28px" fill="#000000" text-anchor="middle" style="white-space: pre;" direction="ltr">pull</text></g></svg>