<?xml version="1.0" encoding="utf-8"?>
<!DOCTYPE svg PUBLIC "-//W3C//DTD SVG 1.1//EN" "http://www.w3.org/Graphics/SVG/1.1/DTD/svg11.dtd">
<svg version="1.1" id="Layer_1" xmlns="http://www.w3.org/2000/svg" xmlns:xlink="http://www.w3.org/1999/xlink" x="0px" y="0px"
width="1160px" height="1160px" viewBox="0 0 1160 1160" enable-background="new 0 0 1160 1160" xml:space="preserve">
<rect x="0" y="0" width="1160" height="1160" fill="rgb(255,255,255)" /><g transform="translate(80,80)"><g transform="translate(320,0) scale(0.4,0.4)"><g transform="" style="fill: rgb(0, 0, 0);">
<g>
	<path d="M100,34.375V0H34.375C24.87,0,16.764,3.353,10.059,10.059S0,24.87,0,34.375V100h100V34.375z"/>
</g>
</g></g><g transform="translate(360,0) scale(0.4,0.4)"><g transform="" style="fill: rgb(0, 0, 0);">
<g>
	<path d="M100,34.375c0-9.505-3.354-17.611-10.059-24.316S75.131,0,65.625,0H0v100h100V34.375z"/>
</g>
</g></g><g transform="translate(480,0) scale(0.4,0.4)"><g transform="" style="fill: rgb(0, 0, 0);">
<path d="M99.999,73.426C99.999,85.11,100,100,100,100s-34.008,0-49.953-0.001c-12.452,0.001-49.952,0-49.952,0V74.931
	c0,0-2.101-65.501,13.486-73.267C37.695-10.353,99.999,45.737,99.999,73.426z"/>
</g></g><g transform="translate(560,0) scale(0.4,0.4)"><g transform="" style="fill: rgb(0, 0, 0);">
<g>
	<path d="M95.338,83.975C120.428,37.136,29.47-30.196,4.645,16.13C-20.399,62.878,70.625,130.076,95.338,83.975"/>
</g>
</g></g><g transform="translate(640,0) scale(0.4,0.4)"><g transform="" style="fill: rgb(0, 0, 0);">
<path d="M99.999,73.426C99.999,85.11,100,100,100,100s-34.008,0-49.953-0.001c-12.452,0.001-49.952,0-49.952,0V74.931
	c0,0-2.101-65.501,13.486-73.267C37.695-10.353,99.999,45.737,99.999,73.426z"/>
</g></g><g transform="translate(320,40) scale(0.4,0.4)"><g transform="" style="fill: rgb(0, 0, 0);">
<rect width="100" height="100"/>
</g></g><g transform="translate(360,40) scale(0.4,0.4)"><g transform="" style="fill: rgb(0, 0, 0);">
<g>
	<path d="M100,0H0v100h65.625c9.506,0,17.611-3.354,24.316-10.059S100,75.131,100,65.625V0z"/>
</g>
</g></g><g transform="translate(440,40) scale(0.4,0.4)"><g transform="" style="fill: rgb(0, 0, 0);">
<g>
	<path d="M100,34.375V0H34.375C24.87,0,16.764,3.353,10.059,10.059S0,24.87,0,34.375V100h100V34.375z"/>
</g>
</g></g><g transform="translate(480,40) scale(0.4,0.4)"><g transform="" style="fill: rgb(0, 0, 0);">
<g>
	<path d="M100,0H0v100h65.625c9.506,0,17.611-3.354,24.316-10.059S100,75.131,100,65.625V0z"/>
</g>
</g></g><g transform="translate(640,40) scale(0.4,0.4)"><g transform="" style="fill: rgb(0, 0, 0);">
<rect width="100" height="100"/>
</g></g><g transform="translate(320,80) scale(0.4,0.4)"><g transform="" style="fill: rgb(0, 0, 0);">
<path d="M0.001,25.574C0.001,13.89,0-1,0-1s34.008,0,49.953,0.001c12.452-0.001,49.952,0,49.952,0v25.068
	c0,0,2.101,65.501-13.486,73.267C62.305,109.353,0.001,53.264,0.001,25.574z"/>
</g></g><g transform="translate(400,80) scale(0.4,0.4)"><g transform="" style="fill: rgb(0, 0, 0);">
<path d="M73.425,0.001C85.11,0.001,100,0,100,0s0,34.008-0.001,49.953c0.001,12.452,0,49.952,0,49.952H74.931
	c0,0-65.501,2.1-73.268-13.486C-10.352,62.305,45.736,0.001,73.425,0.001z"/>
</g></g><g transform="translate(440,80) scale(0.4,0.4)"><g transform="" style="fill: rgb(0, 0, 0);">
<rect width="100" height="100"/>
</g></g><g transform="translate(520,80) scale(0.4,0.4)"><g transform="" style="fill: rgb(0, 0, 0);">
<path d="M99.999,73.426C99.999,85.11,100,100,100,100s-34.008,0-49.953-0.001c-12.452,0.001-49.952,0-49.952,0V74.931
	c0,0-2.101-65.501,13.486-73.267C37.695-10.353,99.999,45.737,99.999,73.426z"/>
</g></g><g transform="translate(640,80) scale(0.4,0.4)"><g transform="" style="fill: rgb(0, 0, 0);">
<rect width="100" height="100"/>
</g></g><g transform="translate(440,120) scale(0.4,0.4)"><g transform="" style="fill: rgb(0, 0, 0);">
<rect width="100" height="100"/>
</g></g><g transform="translate(520,120) scale(0.4,0.4)"><g transform="" style="fill: rgb(0, 0, 0);">
<rect width="100" height="100"/>
</g></g><g transform="translate(640,120) scale(0.4,0.4)"><g transform="" style="fill: rgb(0, 0, 0);">
<rect width="100" height="100"/>
</g></g><g transform="translate(320,160) scale(0.4,0.4)"><g transform="" style="fill: rgb(0, 0, 0);">
<path d="M73.425,0.001C85.11,0.001,100,0,100,0s0,34.008-0.001,49.953c0.001,12.452,0,49.952,0,49.952H74.931
	c0,0-65.501,2.1-73.268-13.486C-10.352,62.305,45.736,0.001,73.425,0.001z"/>
</g></g><g transform="translate(360,160) scale(0.4,0.4)"><g transform="" style="fill: rgb(0, 0, 0);">
<rect width="100" height="100"/>
</g></g><g transform="translate(400,160) scale(0.4,0.4)"><g transform="" style="fill: rgb(0, 0, 0);">
<rect width="100" height="100"/>
</g></g><g transform="translate(440,160) scale(0.4,0.4)"><g transform="" style="fill: rgb(0, 0, 0);">
<rect width="100" height="100"/>
</g></g><g transform="translate(520,160) scale(0.4,0.4)"><g transform="" style="fill: rgb(0, 0, 0);">
<rect width="100" height="100"/>
</g></g><g transform="translate(560,160) scale(0.4,0.4)"><g transform="" style="fill: rgb(0, 0, 0);">
<path d="M26.574,99.999C14.89,99.999,0,100,0,100s0-34.008,0.001-49.953c-0.001-12.453,0-49.953,0-49.953h25.068
	c0,0,64.501-2.101,72.268,13.486C109.354,37.695,54.264,99.999,26.574,99.999z"/>
</g></g><g transform="translate(640,160) scale(0.4,0.4)"><g transform="" style="fill: rgb(0, 0, 0);">
<path d="M0.001,25.574C0.001,13.89,0-1,0-1s34.008,0,49.953,0.001c12.452-0.001,49.952,0,49.952,0v25.068
	c0,0,2.101,65.501-13.486,73.267C62.305,109.353,0.001,53.264,0.001,25.574z"/>
</g></g><g transform="translate(400,200) scale(0.4,0.4)"><g transform="" style="fill: rgb(0, 0, 0);">
<rect width="100" height="100"/>
</g></g><g transform="translate(440,200) scale(0.4,0.4)"><g transform="" style="fill: rgb(0, 0, 0);">
<rect width="100" height="100"/>
</g></g><g transform="translate(480,200) scale(0.4,0.4)"><g transform="" style="fill: rgb(0, 0, 0);">
<rect width="100" height="100"/>
</g></g><g transform="translate(520,200) scale(0.4,0.4)"><g transform="" style="fill: rgb(0, 0, 0);">
<g>
	<path d="M100,0H0v100h65.625c9.506,0,17.611-3.354,24.316-10.059S100,75.131,100,65.625V0z"/>
</g>
</g></g><g transform="translate(320,240) scale(0.4,0.4)"><g transform="" style="fill: rgb(0, 0, 0);">
<g>
	<path d="M95.338,83.975C120.428,37.136,29.47-30.196,4.645,16.13C-20.399,62.878,70.625,130.076,95.338,83.975"/>
</g>
</g></g><g transform="translate(400,240) scale(0.4,0.4)"><g transform="" style="fill: rgb(0, 0, 0);">
<rect width="100" height="100"/>
</g></g><g transform="translate(480,240) scale(0.4,0.4)"><g transform="" style="fill: rgb(0, 0, 0);">
<rect width="100" height="100"/>
</g></g><g transform="translate(560,240) scale(0.4,0.4)"><g transform="" style="fill: rgb(0, 0, 0);">
<g>
	<path d="M95.338,83.975C120.428,37.136,29.47-30.196,4.645,16.13C-20.399,62.878,70.625,130.076,95.338,83.975"/>
</g>
</g></g><g transform="translate(640,240) scale(0.4,0.4)"><g transform="" style="fill: rgb(0, 0, 0);">
<g>
	<path d="M95.338,83.975C120.428,37.136,29.47-30.196,4.645,16.13C-20.399,62.878,70.625,130.076,95.338,83.975"/>
</g>
</g></g><g transform="translate(400,280) scale(0.4,0.4)"><g transform="" style="fill: rgb(0, 0, 0);">
<rect width="100" height="100"/>
</g></g><g transform="translate(480,280) scale(0.4,0.4)"><g transform="" style="fill: rgb(0, 0, 0);">
<rect width="100" height="100"/>
</g></g><g transform="translate(520,280) scale(0.4,0.4)"><g transform="" style="fill: rgb(0, 0, 0);">
<path d="M26.574,99.999C14.89,99.999,0,100,0,100s0-34.008,0.001-49.953c-0.001-12.453,0-49.953,0-49.953h25.068
	c0,0,64.501-2.101,72.268,13.486C109.354,37.695,54.264,99.999,26.574,99.999z"/>
</g></g><g transform="translate(600,280) scale(0.4,0.4)"><g transform="" style="fill: rgb(0, 0, 0);">
<path d="M99.999,73.426C99.999,85.11,100,100,100,100s-34.008,0-49.953-0.001c-12.452,0.001-49.952,0-49.952,0V74.931
	c0,0-2.101-65.501,13.486-73.267C37.695-10.353,99.999,45.737,99.999,73.426z"/>
</g></g><g transform="translate(0,320) scale(0.4,0.4)"><g transform="" style="fill: rgb(0, 0, 0);">
<path d="M99.999,73.426C99.999,85.11,100,100,100,100s-34.008,0-49.953-0.001c-12.452,0.001-49.952,0-49.952,0V74.931
	c0,0-2.101-65.501,13.486-73.267C37.695-10.353,99.999,45.737,99.999,73.426z"/>
</g></g><g transform="translate(120,320) scale(0.4,0.4)"><g transform="" style="fill: rgb(0, 0, 0);">
<g>
	<path d="M100,34.375V0H34.375C24.87,0,16.764,3.353,10.059,10.059S0,24.87,0,34.375V100h100V34.375z"/>
</g>
</g></g><g transform="translate(160,320) scale(0.4,0.4)"><g transform="" style="fill: rgb(0, 0, 0);">
<rect width="100" height="100"/>
</g></g><g transform="translate(200,320) scale(0.4,0.4)"><g transform="" style="fill: rgb(0, 0, 0);">
<rect width="100" height="100"/>
</g></g><g transform="translate(240,320) scale(0.4,0.4)"><g transform="" style="fill: rgb(0, 0, 0);">
<rect width="100" height="100"/>
</g></g><g transform="translate(280,320) scale(0.4,0.4)"><g transform="" style="fill: rgb(0, 0, 0);">
<rect width="100" height="100"/>
</g></g><g transform="translate(320,320) scale(0.4,0.4)"><g transform="" style="fill: rgb(0, 0, 0);">
<rect width="100" height="100"/>
</g></g><g transform="translate(360,320) scale(0.4,0.4)"><g transform="" style="fill: rgb(0, 0, 0);">
<rect width="100" height="100"/>
</g></g><g transform="translate(400,320) scale(0.4,0.4)"><g transform="" style="fill: rgb(0, 0, 0);">
<g>
	<path d="M100,0H0v100h65.625c9.506,0,17.611-3.354,24.316-10.059S100,75.131,100,65.625V0z"/>
</g>
</g></g><g transform="translate(480,320) scale(0.4,0.4)"><g transform="" style="fill: rgb(0, 0, 0);">
<path d="M0.001,25.574C0.001,13.89,0-1,0-1s34.008,0,49.953,0.001c12.452-0.001,49.952,0,49.952,0v25.068
	c0,0,2.101,65.501-13.486,73.267C62.305,109.353,0.001,53.264,0.001,25.574z"/>
</g></g><g transform="translate(560,320) scale(0.4,0.4)"><g transform="" style="fill: rgb(0, 0, 0);">
<g>
	<path d="M100,34.375V0H34.375C24.87,0,16.764,3.353,10.059,10.059S0,24.87,0,34.375V100h100V34.375z"/>
</g>
</g></g><g transform="translate(600,320) scale(0.4,0.4)"><g transform="" style="fill: rgb(0, 0, 0);">
<rect width="100" height="100"/>
</g></g><g transform="translate(640,320) scale(0.4,0.4)"><g transform="" style="fill: rgb(0, 0, 0);">
<rect width="100" height="100"/>
</g></g><g transform="translate(680,320) scale(0.4,0.4)"><g transform="" style="fill: rgb(0, 0, 0);">
<path d="M26.574,99.999C14.89,99.999,0,100,0,100s0-34.008,0.001-49.953c-0.001-12.453,0-49.953,0-49.953h25.068
	c0,0,64.501-2.101,72.268,13.486C109.354,37.695,54.264,99.999,26.574,99.999z"/>
</g></g><g transform="translate(800,320) scale(0.4,0.4)"><g transform="" style="fill: rgb(0, 0, 0);">
<path d="M99.999,73.426C99.999,85.11,100,100,100,100s-34.008,0-49.953-0.001c-12.452,0.001-49.952,0-49.952,0V74.931
	c0,0-2.101-65.501,13.486-73.267C37.695-10.353,99.999,45.737,99.999,73.426z"/>
</g></g><g transform="translate(880,320) scale(0.4,0.4)"><g transform="" style="fill: rgb(0, 0, 0);">
<g>
	<path d="M100,34.375V0H34.375C24.87,0,16.764,3.353,10.059,10.059S0,24.87,0,34.375V100h100V34.375z"/>
</g>
</g></g><g transform="translate(920,320) scale(0.4,0.4)"><g transform="" style="fill: rgb(0, 0, 0);">
<rect width="100" height="100"/>
</g></g><g transform="translate(960,320) scale(0.4,0.4)"><g transform="" style="fill: rgb(0, 0, 0);">
<path d="M26.574,99.999C14.89,99.999,0,100,0,100s0-34.008,0.001-49.953c-0.001-12.453,0-49.953,0-49.953h25.068
	c0,0,64.501-2.101,72.268,13.486C109.354,37.695,54.264,99.999,26.574,99.999z"/>
</g></g><g transform="translate(0,360) scale(0.4,0.4)"><g transform="" style="fill: rgb(0, 0, 0);">
<path d="M0.001,25.574C0.001,13.89,0-1,0-1s34.008,0,49.953,0.001c12.452-0.001,49.952,0,49.952,0v25.068
	c0,0,2.101,65.501-13.486,73.267C62.305,109.353,0.001,53.264,0.001,25.574z"/>
</g></g><g transform="translate(120,360) scale(0.4,0.4)"><g transform="" style="fill: rgb(0, 0, 0);">
<rect width="100" height="100"/>
</g></g><g transform="translate(160,360) scale(0.4,0.4)"><g transform="" style="fill: rgb(0, 0, 0);">
<rect width="100" height="100"/>
</g></g><g transform="translate(200,360) scale(0.4,0.4)"><g transform="" style="fill: rgb(0, 0, 0);">
<g>
	<path d="M100,0H0v100h65.625c9.506,0,17.611-3.354,24.316-10.059S100,75.131,100,65.625V0z"/>
</g>
</g></g><g transform="translate(320,360) scale(0.4,0.4)"><g transform="" style="fill: rgb(0, 0, 0);">
<g>
	<path d="M100,0H0v65.625c0,9.506,3.353,17.611,10.059,24.316S24.87,100,34.375,100H100V0z"/>
</g>
</g></g><g transform="translate(360,360) scale(0.4,0.4)"><g transform="" style="fill: rgb(0, 0, 0);">
<g>
	<path d="M100,0H0v100h65.625c9.506,0,17.611-3.354,24.316-10.059S100,75.131,100,65.625V0z"/>
</g>
</g></g><g transform="translate(520,360) scale(0.4,0.4)"><g transform="" style="fill: rgb(0, 0, 0);">
<path d="M73.425,0.001C85.11,0.001,100,0,100,0s0,34.008-0.001,49.953c0.001,12.452,0,49.952,0,49.952H74.931
	c0,0-65.501,2.1-73.268-13.486C-10.352,62.305,45.736,0.001,73.425,0.001z"/>
</g></g><g transform="translate(560,360) scale(0.4,0.4)"><g transform="" style="fill: rgb(0, 0, 0);">
<rect width="100" height="100"/>
</g></g><g transform="translate(600,360) scale(0.4,0.4)"><g transform="" style="fill: rgb(0, 0, 0);">
<rect width="100" height="100"/>
</g></g><g transform="translate(760,360) scale(0.4,0.4)"><g transform="" style="fill: rgb(0, 0, 0);">
<path d="M73.425,0.001C85.11,0.001,100,0,100,0s0,34.008-0.001,49.953c0.001,12.452,0,49.952,0,49.952H74.931
	c0,0-65.501,2.1-73.268-13.486C-10.352,62.305,45.736,0.001,73.425,0.001z"/>
</g></g><g transform="translate(800,360) scale(0.4,0.4)"><g transform="" style="fill: rgb(0, 0, 0);">
<rect width="100" height="100"/>
</g></g><g transform="translate(840,360) scale(0.4,0.4)"><g transform="" style="fill: rgb(0, 0, 0);">
<rect width="100" height="100"/>
</g></g><g transform="translate(880,360) scale(0.4,0.4)"><g transform="" style="fill: rgb(0, 0, 0);">
<rect width="100" height="100"/>
</g></g><g transform="translate(920,360) scale(0.4,0.4)"><g transform="" style="fill: rgb(0, 0, 0);">
<g>
	<path d="M100,0H0v100h65.625c9.506,0,17.611-3.354,24.316-10.059S100,75.131,100,65.625V0z"/>
</g>
</g></g><g transform="translate(40,400) scale(0.4,0.4)"><g transform="" style="fill: rgb(0, 0, 0);">
<path d="M99.999,73.426C99.999,85.11,100,100,100,100s-34.008,0-49.953-0.001c-12.452,0.001-49.952,0-49.952,0V74.931
	c0,0-2.101-65.501,13.486-73.267C37.695-10.353,99.999,45.737,99.999,73.426z"/>
</g></g><g transform="translate(120,400) scale(0.4,0.4)"><g transform="" style="fill: rgb(0, 0, 0);">
<path d="M0.001,25.574C0.001,13.89,0-1,0-1s34.008,0,49.953,0.001c12.452-0.001,49.952,0,49.952,0v25.068
	c0,0,2.101,65.501-13.486,73.267C62.305,109.353,0.001,53.264,0.001,25.574z"/>
</g></g><g transform="translate(240,400) scale(0.4,0.4)"><g transform="" style="fill: rgb(0, 0, 0);">
<path d="M73.425,0.001C85.11,0.001,100,0,100,0s0,34.008-0.001,49.953c0.001,12.452,0,49.952,0,49.952H74.931
	c0,0-65.501,2.1-73.268-13.486C-10.352,62.305,45.736,0.001,73.425,0.001z"/>
</g></g><g transform="translate(280,400) scale(0.4,0.4)"><g transform="" style="fill: rgb(0, 0, 0);">
<path d="M26.574,99.999C14.89,99.999,0,100,0,100s0-34.008,0.001-49.953c-0.001-12.453,0-49.953,0-49.953h25.068
	c0,0,64.501-2.101,72.268,13.486C109.354,37.695,54.264,99.999,26.574,99.999z"/>
</g></g><g transform="translate(400,400) scale(0.4,0.4)"><g transform="" style="fill: rgb(0, 0, 0);">
<g>
	<path d="M95.338,83.975C120.428,37.136,29.47-30.196,4.645,16.13C-20.399,62.878,70.625,130.076,95.338,83.975"/>
</g>
</g></g><g transform="translate(480,400) scale(0.4,0.4)"><g transform="" style="fill: rgb(0, 0, 0);">
<path d="M99.999,73.426C99.999,85.11,100,100,100,100s-34.008,0-49.953-0.001c-12.452,0.001-49.952,0-49.952,0V74.931
	c0,0-2.101-65.501,13.486-73.267C37.695-10.353,99.999,45.737,99.999,73.426z"/>
</g></g><g transform="translate(560,400) scale(0.4,0.4)"><g transform="" style="fill: rgb(0, 0, 0);">
<rect width="100" height="100"/>
</g></g><g transform="translate(600,400) scale(0.4,0.4)"><g transform="" style="fill: rgb(0, 0, 0);">
<rect width="100" height="100"/>
</g></g><g transform="translate(640,400) scale(0.4,0.4)"><g transform="" style="fill: rgb(0, 0, 0);">
<rect width="100" height="100"/>
</g></g><g transform="translate(680,400) scale(0.4,0.4)"><g transform="" style="fill: rgb(0, 0, 0);">
<path d="M26.574,99.999C14.89,99.999,0,100,0,100s0-34.008,0.001-49.953c-0.001-12.453,0-49.953,0-49.953h25.068
	c0,0,64.501-2.101,72.268,13.486C109.354,37.695,54.264,99.999,26.574,99.999z"/>
</g></g><g transform="translate(800,400) scale(0.4,0.4)"><g transform="" style="fill: rgb(0, 0, 0);">
<g>
	<path d="M100,0H0v65.625c0,9.506,3.353,17.611,10.059,24.316S24.87,100,34.375,100H100V0z"/>
</g>
</g></g><g transform="translate(840,400) scale(0.4,0.4)"><g transform="" style="fill: rgb(0, 0, 0);">
<rect width="100" height="100"/>
</g></g><g transform="translate(960,400) scale(0.4,0.4)"><g transform="" style="fill: rgb(0, 0, 0);">
<path d="M99.999,73.426C99.999,85.11,100,100,100,100s-34.008,0-49.953-0.001c-12.452,0.001-49.952,0-49.952,0V74.931
	c0,0-2.101-65.501,13.486-73.267C37.695-10.353,99.999,45.737,99.999,73.426z"/>
</g></g><g transform="translate(0,440) scale(0.4,0.4)"><g transform="" style="fill: rgb(0, 0, 0);">
<path d="M73.425,0.001C85.11,0.001,100,0,100,0s0,34.008-0.001,49.953c0.001,12.452,0,49.952,0,49.952H74.931
	c0,0-65.501,2.1-73.268-13.486C-10.352,62.305,45.736,0.001,73.425,0.001z"/>
</g></g><g transform="translate(40,440) scale(0.4,0.4)"><g transform="" style="fill: rgb(0, 0, 0);">
<rect width="100" height="100"/>
</g></g><g transform="translate(80,440) scale(0.4,0.4)"><g transform="" style="fill: rgb(0, 0, 0);">
<path d="M26.574,99.999C14.89,99.999,0,100,0,100s0-34.008,0.001-49.953c-0.001-12.453,0-49.953,0-49.953h25.068
	c0,0,64.501-2.101,72.268,13.486C109.354,37.695,54.264,99.999,26.574,99.999z"/>
</g></g><g transform="translate(200,440) scale(0.4,0.4)"><g transform="" style="fill: rgb(0, 0, 0);">
<g>
	<path d="M95.338,83.975C120.428,37.136,29.47-30.196,4.645,16.13C-20.399,62.878,70.625,130.076,95.338,83.975"/>
</g>
</g></g><g transform="translate(320,440) scale(0.4,0.4)"><g transform="" style="fill: rgb(0, 0, 0);">
<g>
	<path d="M100,34.375V0H34.375C24.87,0,16.764,3.353,10.059,10.059S0,24.87,0,34.375V100h100V34.375z"/>
</g>
</g></g><g transform="translate(360,440) scale(0.4,0.4)"><g transform="" style="fill: rgb(0, 0, 0);">
<path d="M26.574,99.999C14.89,99.999,0,100,0,100s0-34.008,0.001-49.953c-0.001-12.453,0-49.953,0-49.953h25.068
	c0,0,64.501-2.101,72.268,13.486C109.354,37.695,54.264,99.999,26.574,99.999z"/>
</g></g><g transform="translate(480,440) scale(0.4,0.4)"><g transform="" style="fill: rgb(0, 0, 0);">
<rect width="100" height="100"/>
</g></g><g transform="translate(560,440) scale(0.4,0.4)"><g transform="" style="fill: rgb(0, 0, 0);">
<g>
	<path d="M100,0H0v65.625c0,9.506,3.353,17.611,10.059,24.316S24.87,100,34.375,100H100V0z"/>
</g>
</g></g><g transform="translate(600,440) scale(0.4,0.4)"><g transform="" style="fill: rgb(0, 0, 0);">
<rect width="100" height="100"/>
</g></g><g transform="translate(640,440) scale(0.4,0.4)"><g transform="" style="fill: rgb(0, 0, 0);">
<g>
	<path d="M100,0H0v100h65.625c9.506,0,17.611-3.354,24.316-10.059S100,75.131,100,65.625V0z"/>
</g>
</g></g><g transform="translate(720,440) scale(0.4,0.4)"><g transform="" style="fill: rgb(0, 0, 0);">
<path d="M99.999,73.426C99.999,85.11,100,100,100,100s-34.008,0-49.953-0.001c-12.452,0.001-49.952,0-49.952,0V74.931
	c0,0-2.101-65.501,13.486-73.267C37.695-10.353,99.999,45.737,99.999,73.426z"/>
</g></g><g transform="translate(840,440) scale(0.4,0.4)"><g transform="" style="fill: rgb(0, 0, 0);">
<g>
	<path d="M100,0H0v65.625c0,9.506,3.353,17.611,10.059,24.316S24.87,100,34.375,100H100V0z"/>
</g>
</g></g><g transform="translate(880,440) scale(0.4,0.4)"><g transform="" style="fill: rgb(0, 0, 0);">
<rect width="100" height="100"/>
</g></g><g transform="translate(920,440) scale(0.4,0.4)"><g transform="" style="fill: rgb(0, 0, 0);">
<rect width="100" height="100"/>
</g></g><g transform="translate(960,440) scale(0.4,0.4)"><g transform="" style="fill: rgb(0, 0, 0);">
<rect width="100" height="100"/>
</g></g><g transform="translate(40,480) scale(0.4,0.4)"><g transform="" style="fill: rgb(0, 0, 0);">
<path d="M0.001,25.574C0.001,13.89,0-1,0-1s34.008,0,49.953,0.001c12.452-0.001,49.952,0,49.952,0v25.068
	c0,0,2.101,65.501-13.486,73.267C62.305,109.353,0.001,53.264,0.001,25.574z"/>
</g></g><g transform="translate(120,480) scale(0.4,0.4)"><g transform="" style="fill: rgb(0, 0, 0);">
<g>
	<path d="M100,34.375V0H34.375C24.87,0,16.764,3.353,10.059,10.059S0,24.87,0,34.375V100h100V34.375z"/>
</g>
</g></g><g transform="translate(160,480) scale(0.4,0.4)"><g transform="" style="fill: rgb(0, 0, 0);">
<path d="M26.574,99.999C14.89,99.999,0,100,0,100s0-34.008,0.001-49.953c-0.001-12.453,0-49.953,0-49.953h25.068
	c0,0,64.501-2.101,72.268,13.486C109.354,37.695,54.264,99.999,26.574,99.999z"/>
</g></g><g transform="translate(240,480) scale(0.4,0.4)"><g transform="" style="fill: rgb(0, 0, 0);">
<g>
	<path d="M95.338,83.975C120.428,37.136,29.47-30.196,4.645,16.13C-20.399,62.878,70.625,130.076,95.338,83.975"/>
</g>
</g></g><g transform="translate(320,480) scale(0.4,0.4)"><g transform="" style="fill: rgb(0, 0, 0);">
<rect width="100" height="100"/>
</g></g><g transform="translate(400,480) scale(0.4,0.4)"><g transform="" style="fill: rgb(0, 0, 0);">
<path d="M99.999,73.426C99.999,85.11,100,100,100,100s-34.008,0-49.953-0.001c-12.452,0.001-49.952,0-49.952,0V74.931
	c0,0-2.101-65.501,13.486-73.267C37.695-10.353,99.999,45.737,99.999,73.426z"/>
</g></g><g transform="translate(480,480) scale(0.4,0.4)"><g transform="" style="fill: rgb(0, 0, 0);">
<rect width="100" height="100"/>
</g></g><g transform="translate(600,480) scale(0.4,0.4)"><g transform="" style="fill: rgb(0, 0, 0);">
<rect width="100" height="100"/>
</g></g><g transform="translate(720,480) scale(0.4,0.4)"><g transform="" style="fill: rgb(0, 0, 0);">
<path d="M0.001,25.574C0.001,13.89,0-1,0-1s34.008,0,49.953,0.001c12.452-0.001,49.952,0,49.952,0v25.068
	c0,0,2.101,65.501-13.486,73.267C62.305,109.353,0.001,53.264,0.001,25.574z"/>
</g></g><g transform="translate(960,480) scale(0.4,0.4)"><g transform="" style="fill: rgb(0, 0, 0);">
<path d="M0.001,25.574C0.001,13.89,0-1,0-1s34.008,0,49.953,0.001c12.452-0.001,49.952,0,49.952,0v25.068
	c0,0,2.101,65.501-13.486,73.267C62.305,109.353,0.001,53.264,0.001,25.574z"/>
</g></g><g transform="translate(0,520) scale(0.4,0.4)"><g transform="" style="fill: rgb(0, 0, 0);">
<path d="M99.999,73.426C99.999,85.11,100,100,100,100s-34.008,0-49.953-0.001c-12.452,0.001-49.952,0-49.952,0V74.931
	c0,0-2.101-65.501,13.486-73.267C37.695-10.353,99.999,45.737,99.999,73.426z"/>
</g></g><g transform="translate(80,520) scale(0.4,0.4)"><g transform="" style="fill: rgb(0, 0, 0);">
<g>
	<path d="M100,34.375V0H34.375C24.87,0,16.764,3.353,10.059,10.059S0,24.87,0,34.375V100h100V34.375z"/>
</g>
</g></g><g transform="translate(120,520) scale(0.4,0.4)"><g transform="" style="fill: rgb(0, 0, 0);">
<rect width="100" height="100"/>
</g></g><g transform="translate(320,520) scale(0.4,0.4)"><g transform="" style="fill: rgb(0, 0, 0);">
<rect width="100" height="100"/>
</g></g><g transform="translate(400,520) scale(0.4,0.4)"><g transform="" style="fill: rgb(0, 0, 0);">
<rect width="100" height="100"/>
</g></g><g transform="translate(480,520) scale(0.4,0.4)"><g transform="" style="fill: rgb(0, 0, 0);">
<g>
	<path d="M100,0H0v65.625c0,9.506,3.353,17.611,10.059,24.316S24.87,100,34.375,100H100V0z"/>
</g>
</g></g><g transform="translate(520,520) scale(0.4,0.4)"><g transform="" style="fill: rgb(0, 0, 0);">
<g>
	<path d="M100,34.375c0-9.505-3.354-17.611-10.059-24.316S75.131,0,65.625,0H0v100h100V34.375z"/>
</g>
</g></g><g transform="translate(600,520) scale(0.4,0.4)"><g transform="" style="fill: rgb(0, 0, 0);">
<rect width="100" height="100"/>
</g></g><g transform="translate(640,520) scale(0.4,0.4)"><g transform="" style="fill: rgb(0, 0, 0);">
<g>
	<path d="M100,34.375c0-9.505-3.354-17.611-10.059-24.316S75.131,0,65.625,0H0v100h100V34.375z"/>
</g>
</g></g><g transform="translate(800,520) scale(0.4,0.4)"><g transform="" style="fill: rgb(0, 0, 0);">
<path d="M99.999,73.426C99.999,85.11,100,100,100,100s-34.008,0-49.953-0.001c-12.452,0.001-49.952,0-49.952,0V74.931
	c0,0-2.101-65.501,13.486-73.267C37.695-10.353,99.999,45.737,99.999,73.426z"/>
</g></g><g transform="translate(920,520) scale(0.4,0.4)"><g transform="" style="fill: rgb(0, 0, 0);">
<path d="M99.999,73.426C99.999,85.11,100,100,100,100s-34.008,0-49.953-0.001c-12.452,0.001-49.952,0-49.952,0V74.931
	c0,0-2.101-65.501,13.486-73.267C37.695-10.353,99.999,45.737,99.999,73.426z"/>
</g></g><g transform="translate(0,560) scale(0.4,0.4)"><g transform="" style="fill: rgb(0, 0, 0);">
<rect width="100" height="100"/>
</g></g><g transform="translate(40,560) scale(0.4,0.4)"><g transform="" style="fill: rgb(0, 0, 0);">
<rect width="100" height="100"/>
</g></g><g transform="translate(80,560) scale(0.4,0.4)"><g transform="" style="fill: rgb(0, 0, 0);">
<rect width="100" height="100"/>
</g></g><g transform="translate(120,560) scale(0.4,0.4)"><g transform="" style="fill: rgb(0, 0, 0);">
<rect width="100" height="100"/>
</g></g><g transform="translate(160,560) scale(0.4,0.4)"><g transform="" style="fill: rgb(0, 0, 0);">
<rect width="100" height="100"/>
</g></g><g transform="translate(200,560) scale(0.4,0.4)"><g transform="" style="fill: rgb(0, 0, 0);">
<rect width="100" height="100"/>
</g></g><g transform="translate(240,560) scale(0.4,0.4)"><g transform="" style="fill: rgb(0, 0, 0);">
<rect width="100" height="100"/>
</g></g><g transform="translate(280,560) scale(0.4,0.4)"><g transform="" style="fill: rgb(0, 0, 0);">
<rect width="100" height="100"/>
</g></g><g transform="translate(320,560) scale(0.4,0.4)"><g transform="" style="fill: rgb(0, 0, 0);">
<g>
	<path d="M100,0H0v100h65.625c9.506,0,17.611-3.354,24.316-10.059S100,75.131,100,65.625V0z"/>
</g>
</g></g><g transform="translate(400,560) scale(0.4,0.4)"><g transform="" style="fill: rgb(0, 0, 0);">
<rect width="100" height="100"/>
</g></g><g transform="translate(520,560) scale(0.4,0.4)"><g transform="" style="fill: rgb(0, 0, 0);">
<g>
	<path d="M100,0H0v65.625c0,9.506,3.353,17.611,10.059,24.316S24.87,100,34.375,100H100V0z"/>
</g>
</g></g><g transform="translate(560,560) scale(0.4,0.4)"><g transform="" style="fill: rgb(0, 0, 0);">
<rect width="100" height="100"/>
</g></g><g transform="translate(600,560) scale(0.4,0.4)"><g transform="" style="fill: rgb(0, 0, 0);">
<rect width="100" height="100"/>
</g></g><g transform="translate(640,560) scale(0.4,0.4)"><g transform="" style="fill: rgb(0, 0, 0);">
<rect width="100" height="100"/>
</g></g><g transform="translate(680,560) scale(0.4,0.4)"><g transform="" style="fill: rgb(0, 0, 0);">
<path d="M26.574,99.999C14.89,99.999,0,100,0,100s0-34.008,0.001-49.953c-0.001-12.453,0-49.953,0-49.953h25.068
	c0,0,64.501-2.101,72.268,13.486C109.354,37.695,54.264,99.999,26.574,99.999z"/>
</g></g><g transform="translate(800,560) scale(0.4,0.4)"><g transform="" style="fill: rgb(0, 0, 0);">
<g>
	<path d="M100,0H0v65.625c0,9.506,3.353,17.611,10.059,24.316S24.87,100,34.375,100H100V0z"/>
</g>
</g></g><g transform="translate(840,560) scale(0.4,0.4)"><g transform="" style="fill: rgb(0, 0, 0);">
<rect width="100" height="100"/>
</g></g><g transform="translate(880,560) scale(0.4,0.4)"><g transform="" style="fill: rgb(0, 0, 0);">
<rect width="100" height="100"/>
</g></g><g transform="translate(920,560) scale(0.4,0.4)"><g transform="" style="fill: rgb(0, 0, 0);">
<rect width="100" height="100"/>
</g></g><g transform="translate(960,560) scale(0.4,0.4)"><g transform="" style="fill: rgb(0, 0, 0);">
<g>
	<path d="M100,34.375c0-9.505-3.354-17.611-10.059-24.316S75.131,0,65.625,0H0v100h100V34.375z"/>
</g>
</g></g><g transform="translate(0,600) scale(0.4,0.4)"><g transform="" style="fill: rgb(0, 0, 0);">
<rect width="100" height="100"/>
</g></g><g transform="translate(80,600) scale(0.4,0.4)"><g transform="" style="fill: rgb(0, 0, 0);">
<rect width="100" height="100"/>
</g></g><g transform="translate(120,600) scale(0.4,0.4)"><g transform="" style="fill: rgb(0, 0, 0);">
<rect width="100" height="100"/>
</g></g><g transform="translate(160,600) scale(0.4,0.4)"><g transform="" style="fill: rgb(0, 0, 0);">
<rect width="100" height="100"/>
</g></g><g transform="translate(200,600) scale(0.4,0.4)"><g transform="" style="fill: rgb(0, 0, 0);">
<g>
	<path d="M100,0H0v100h65.625c9.506,0,17.611-3.354,24.316-10.059S100,75.131,100,65.625V0z"/>
</g>
</g></g><g transform="translate(360,600) scale(0.4,0.4)"><g transform="" style="fill: rgb(0, 0, 0);">
<path d="M73.425,0.001C85.11,0.001,100,0,100,0s0,34.008-0.001,49.953c0.001,12.452,0,49.952,0,49.952H74.931
	c0,0-65.501,2.1-73.268-13.486C-10.352,62.305,45.736,0.001,73.425,0.001z"/>
</g></g><g transform="translate(400,600) scale(0.4,0.4)"><g transform="" style="fill: rgb(0, 0, 0);">
<rect width="100" height="100"/>
</g></g><g transform="translate(440,600) scale(0.4,0.4)"><g transform="" style="fill: rgb(0, 0, 0);">
<path d="M26.574,99.999C14.89,99.999,0,100,0,100s0-34.008,0.001-49.953c-0.001-12.453,0-49.953,0-49.953h25.068
	c0,0,64.501-2.101,72.268,13.486C109.354,37.695,54.264,99.999,26.574,99.999z"/>
</g></g><g transform="translate(560,600) scale(0.4,0.4)"><g transform="" style="fill: rgb(0, 0, 0);">
<rect width="100" height="100"/>
</g></g><g transform="translate(600,600) scale(0.4,0.4)"><g transform="" style="fill: rgb(0, 0, 0);">
<g>
	<path d="M100,0H0v100h65.625c9.506,0,17.611-3.354,24.316-10.059S100,75.131,100,65.625V0z"/>
</g>
</g></g><g transform="translate(760,600) scale(0.4,0.4)"><g transform="" style="fill: rgb(0, 0, 0);">
<path d="M99.999,73.426C99.999,85.11,100,100,100,100s-34.008,0-49.953-0.001c-12.452,0.001-49.952,0-49.952,0V74.931
	c0,0-2.101-65.501,13.486-73.267C37.695-10.353,99.999,45.737,99.999,73.426z"/>
</g></g><g transform="translate(840,600) scale(0.4,0.4)"><g transform="" style="fill: rgb(0, 0, 0);">
<g>
	<path d="M100,0H0v65.625c0,9.506,3.353,17.611,10.059,24.316S24.87,100,34.375,100H100V0z"/>
</g>
</g></g><g transform="translate(880,600) scale(0.4,0.4)"><g transform="" style="fill: rgb(0, 0, 0);">
<rect width="100" height="100"/>
</g></g><g transform="translate(960,600) scale(0.4,0.4)"><g transform="" style="fill: rgb(0, 0, 0);">
<path d="M0.001,25.574C0.001,13.89,0-1,0-1s34.008,0,49.953,0.001c12.452-0.001,49.952,0,49.952,0v25.068
	c0,0,2.101,65.501-13.486,73.267C62.305,109.353,0.001,53.264,0.001,25.574z"/>
</g></g><g transform="translate(0,640) scale(0.4,0.4)"><g transform="" style="fill: rgb(0, 0, 0);">
<path d="M0.001,25.574C0.001,13.89,0-1,0-1s34.008,0,49.953,0.001c12.452-0.001,49.952,0,49.952,0v25.068
	c0,0,2.101,65.501-13.486,73.267C62.305,109.353,0.001,53.264,0.001,25.574z"/>
</g></g><g transform="translate(80,640) scale(0.4,0.4)"><g transform="" style="fill: rgb(0, 0, 0);">
<g>
	<path d="M100,0H0v65.625c0,9.506,3.353,17.611,10.059,24.316S24.87,100,34.375,100H100V0z"/>
</g>
</g></g><g transform="translate(120,640) scale(0.4,0.4)"><g transform="" style="fill: rgb(0, 0, 0);">
<g>
	<path d="M100,0H0v100h65.625c9.506,0,17.611-3.354,24.316-10.059S100,75.131,100,65.625V0z"/>
</g>
</g></g><g transform="translate(240,640) scale(0.4,0.4)"><g transform="" style="fill: rgb(0, 0, 0);">
<g>
	<path d="M95.338,83.975C120.428,37.136,29.47-30.196,4.645,16.13C-20.399,62.878,70.625,130.076,95.338,83.975"/>
</g>
</g></g><g transform="translate(320,640) scale(0.4,0.4)"><g transform="" style="fill: rgb(0, 0, 0);">
<path d="M99.999,73.426C99.999,85.11,100,100,100,100s-34.008,0-49.953-0.001c-12.452,0.001-49.952,0-49.952,0V74.931
	c0,0-2.101-65.501,13.486-73.267C37.695-10.353,99.999,45.737,99.999,73.426z"/>
</g></g><g transform="translate(400,640) scale(0.4,0.4)"><g transform="" style="fill: rgb(0, 0, 0);">
<path d="M0.001,25.574C0.001,13.89,0-1,0-1s34.008,0,49.953,0.001c12.452-0.001,49.952,0,49.952,0v25.068
	c0,0,2.101,65.501-13.486,73.267C62.305,109.353,0.001,53.264,0.001,25.574z"/>
</g></g><g transform="translate(480,640) scale(0.4,0.4)"><g transform="" style="fill: rgb(0, 0, 0);">
<g>
	<path d="M100,34.375V0H34.375C24.87,0,16.764,3.353,10.059,10.059S0,24.87,0,34.375V100h100V34.375z"/>
</g>
</g></g><g transform="translate(520,640) scale(0.4,0.4)"><g transform="" style="fill: rgb(0, 0, 0);">
<rect width="100" height="100"/>
</g></g><g transform="translate(560,640) scale(0.4,0.4)"><g transform="" style="fill: rgb(0, 0, 0);">
<g>
	<path d="M100,0H0v100h65.625c9.506,0,17.611-3.354,24.316-10.059S100,75.131,100,65.625V0z"/>
</g>
</g></g><g transform="translate(640,640) scale(0.4,0.4)"><g transform="" style="fill: rgb(0, 0, 0);">
<g>
	<path d="M100,34.375V0H34.375C24.87,0,16.764,3.353,10.059,10.059S0,24.87,0,34.375V100h100V34.375z"/>
</g>
</g></g><g transform="translate(680,640) scale(0.4,0.4)"><g transform="" style="fill: rgb(0, 0, 0);">
<rect width="100" height="100"/>
</g></g><g transform="translate(720,640) scale(0.4,0.4)"><g transform="" style="fill: rgb(0, 0, 0);">
<rect width="100" height="100"/>
</g></g><g transform="translate(760,640) scale(0.4,0.4)"><g transform="" style="fill: rgb(0, 0, 0);">
<rect width="100" height="100"/>
</g></g><g transform="translate(800,640) scale(0.4,0.4)"><g transform="" style="fill: rgb(0, 0, 0);">
<g>
	<path d="M100,34.375c0-9.505-3.354-17.611-10.059-24.316S75.131,0,65.625,0H0v100h100V34.375z"/>
</g>
</g></g><g transform="translate(880,640) scale(0.4,0.4)"><g transform="" style="fill: rgb(0, 0, 0);">
<rect width="100" height="100"/>
</g></g><g transform="translate(920,640) scale(0.4,0.4)"><g transform="" style="fill: rgb(0, 0, 0);">
<g>
	<path d="M100,34.375c0-9.505-3.354-17.611-10.059-24.316S75.131,0,65.625,0H0v100h100V34.375z"/>
</g>
</g></g><g transform="translate(320,680) scale(0.4,0.4)"><g transform="" style="fill: rgb(0, 0, 0);">
<rect width="100" height="100"/>
</g></g><g transform="translate(360,680) scale(0.4,0.4)"><g transform="" style="fill: rgb(0, 0, 0);">
<path d="M26.574,99.999C14.89,99.999,0,100,0,100s0-34.008,0.001-49.953c-0.001-12.453,0-49.953,0-49.953h25.068
	c0,0,64.501-2.101,72.268,13.486C109.354,37.695,54.264,99.999,26.574,99.999z"/>
</g></g><g transform="translate(480,680) scale(0.4,0.4)"><g transform="" style="fill: rgb(0, 0, 0);">
<g>
	<path d="M100,0H0v65.625c0,9.506,3.353,17.611,10.059,24.316S24.87,100,34.375,100H100V0z"/>
</g>
</g></g><g transform="translate(520,680) scale(0.4,0.4)"><g transform="" style="fill: rgb(0, 0, 0);">
<g>
	<path d="M100,0H0v100h65.625c9.506,0,17.611-3.354,24.316-10.059S100,75.131,100,65.625V0z"/>
</g>
</g></g><g transform="translate(640,680) scale(0.4,0.4)"><g transform="" style="fill: rgb(0, 0, 0);">
<rect width="100" height="100"/>
</g></g><g transform="translate(800,680) scale(0.4,0.4)"><g transform="" style="fill: rgb(0, 0, 0);">
<rect width="100" height="100"/>
</g></g><g transform="translate(880,680) scale(0.4,0.4)"><g transform="" style="fill: rgb(0, 0, 0);">
<g>
	<path d="M100,0H0v65.625c0,9.506,3.353,17.611,10.059,24.316S24.87,100,34.375,100H100V0z"/>
</g>
</g></g><g transform="translate(920,680) scale(0.4,0.4)"><g transform="" style="fill: rgb(0, 0, 0);">
<g>
	<path d="M100,0H0v100h65.625c9.506,0,17.611-3.354,24.316-10.059S100,75.131,100,65.625V0z"/>
</g>
</g></g><g transform="translate(320,720) scale(0.4,0.4)"><g transform="" style="fill: rgb(0, 0, 0);">
<rect width="100" height="100"/>
</g></g><g transform="translate(400,720) scale(0.4,0.4)"><g transform="" style="fill: rgb(0, 0, 0);">
<g>
	<path d="M100,34.375V0H34.375C24.87,0,16.764,3.353,10.059,10.059S0,24.87,0,34.375V100h100V34.375z"/>
</g>
</g></g><g transform="translate(440,720) scale(0.4,0.4)"><g transform="" style="fill: rgb(0, 0, 0);">
<path d="M26.574,99.999C14.89,99.999,0,100,0,100s0-34.008,0.001-49.953c-0.001-12.453,0-49.953,0-49.953h25.068
	c0,0,64.501-2.101,72.268,13.486C109.354,37.695,54.264,99.999,26.574,99.999z"/>
</g></g><g transform="translate(640,720) scale(0.4,0.4)"><g transform="" style="fill: rgb(0, 0, 0);">
<rect width="100" height="100"/>
</g></g><g transform="translate(720,720) scale(0.4,0.4)"><g transform="" style="fill: rgb(0, 0, 0);">
<g>
	<path d="M95.338,83.975C120.428,37.136,29.47-30.196,4.645,16.13C-20.399,62.878,70.625,130.076,95.338,83.975"/>
</g>
</g></g><g transform="translate(800,720) scale(0.4,0.4)"><g transform="" style="fill: rgb(0, 0, 0);">
<rect width="100" height="100"/>
</g></g><g transform="translate(960,720) scale(0.4,0.4)"><g transform="" style="fill: rgb(0, 0, 0);">
<g>
	<path d="M95.338,83.975C120.428,37.136,29.47-30.196,4.645,16.13C-20.399,62.878,70.625,130.076,95.338,83.975"/>
</g>
</g></g><g transform="translate(320,760) scale(0.4,0.4)"><g transform="" style="fill: rgb(0, 0, 0);">
<rect width="100" height="100"/>
</g></g><g transform="translate(400,760) scale(0.4,0.4)"><g transform="" style="fill: rgb(0, 0, 0);">
<rect width="100" height="100"/>
</g></g><g transform="translate(520,760) scale(0.4,0.4)"><g transform="" style="fill: rgb(0, 0, 0);">
<path d="M73.425,0.001C85.11,0.001,100,0,100,0s0,34.008-0.001,49.953c0.001,12.452,0,49.952,0,49.952H74.931
	c0,0-65.501,2.1-73.268-13.486C-10.352,62.305,45.736,0.001,73.425,0.001z"/>
</g></g><g transform="translate(560,760) scale(0.4,0.4)"><g transform="" style="fill: rgb(0, 0, 0);">
<g>
	<path d="M100,34.375c0-9.505-3.354-17.611-10.059-24.316S75.131,0,65.625,0H0v100h100V34.375z"/>
</g>
</g></g><g transform="translate(640,760) scale(0.4,0.4)"><g transform="" style="fill: rgb(0, 0, 0);">
<rect width="100" height="100"/>
</g></g><g transform="translate(800,760) scale(0.4,0.4)"><g transform="" style="fill: rgb(0, 0, 0);">
<rect width="100" height="100"/>
</g></g><g transform="translate(320,800) scale(0.4,0.4)"><g transform="" style="fill: rgb(0, 0, 0);">
<rect width="100" height="100"/>
</g></g><g transform="translate(400,800) scale(0.4,0.4)"><g transform="" style="fill: rgb(0, 0, 0);">
<rect width="100" height="100"/>
</g></g><g transform="translate(560,800) scale(0.4,0.4)"><g transform="" style="fill: rgb(0, 0, 0);">
<rect width="100" height="100"/>
</g></g><g transform="translate(600,800) scale(0.4,0.4)"><g transform="" style="fill: rgb(0, 0, 0);">
<rect width="100" height="100"/>
</g></g><g transform="translate(640,800) scale(0.4,0.4)"><g transform="" style="fill: rgb(0, 0, 0);">
<rect width="100" height="100"/>
</g></g><g transform="translate(680,800) scale(0.4,0.4)"><g transform="" style="fill: rgb(0, 0, 0);">
<rect width="100" height="100"/>
</g></g><g transform="translate(720,800) scale(0.4,0.4)"><g transform="" style="fill: rgb(0, 0, 0);">
<rect width="100" height="100"/>
</g></g><g transform="translate(760,800) scale(0.4,0.4)"><g transform="" style="fill: rgb(0, 0, 0);">
<rect width="100" height="100"/>
</g></g><g transform="translate(800,800) scale(0.4,0.4)"><g transform="" style="fill: rgb(0, 0, 0);">
<g>
	<path d="M100,0H0v100h65.625c9.506,0,17.611-3.354,24.316-10.059S100,75.131,100,65.625V0z"/>
</g>
</g></g><g transform="translate(320,840) scale(0.4,0.4)"><g transform="" style="fill: rgb(0, 0, 0);">
<path d="M0.001,25.574C0.001,13.89,0-1,0-1s34.008,0,49.953,0.001c12.452-0.001,49.952,0,49.952,0v25.068
	c0,0,2.101,65.501-13.486,73.267C62.305,109.353,0.001,53.264,0.001,25.574z"/>
</g></g><g transform="translate(400,840) scale(0.4,0.4)"><g transform="" style="fill: rgb(0, 0, 0);">
<g>
	<path d="M100,0H0v65.625c0,9.506,3.353,17.611,10.059,24.316S24.87,100,34.375,100H100V0z"/>
</g>
</g></g><g transform="translate(440,840) scale(0.4,0.4)"><g transform="" style="fill: rgb(0, 0, 0);">
<g>
	<path d="M100,34.375c0-9.505-3.354-17.611-10.059-24.316S75.131,0,65.625,0H0v100h100V34.375z"/>
</g>
</g></g><g transform="translate(560,840) scale(0.4,0.4)"><g transform="" style="fill: rgb(0, 0, 0);">
<g>
	<path d="M100,0H0v65.625c0,9.506,3.353,17.611,10.059,24.316S24.87,100,34.375,100H100V0z"/>
</g>
</g></g><g transform="translate(600,840) scale(0.4,0.4)"><g transform="" style="fill: rgb(0, 0, 0);">
<g>
	<path d="M100,0H0v100h65.625c9.506,0,17.611-3.354,24.316-10.059S100,75.131,100,65.625V0z"/>
</g>
</g></g><g transform="translate(680,840) scale(0.4,0.4)"><g transform="" style="fill: rgb(0, 0, 0);">
<rect width="100" height="100"/>
</g></g><g transform="translate(720,840) scale(0.4,0.4)"><g transform="" style="fill: rgb(0, 0, 0);">
<g>
	<path d="M100,0H0v100h65.625c9.506,0,17.611-3.354,24.316-10.059S100,75.131,100,65.625V0z"/>
</g>
</g></g><g transform="translate(920,840) scale(0.4,0.4)"><g transform="" style="fill: rgb(0, 0, 0);">
<g>
	<path d="M100,34.375V0H34.375C24.87,0,16.764,3.353,10.059,10.059S0,24.87,0,34.375V100h100V34.375z"/>
</g>
</g></g><g transform="translate(960,840) scale(0.4,0.4)"><g transform="" style="fill: rgb(0, 0, 0);">
<g>
	<path d="M100,34.375c0-9.505-3.354-17.611-10.059-24.316S75.131,0,65.625,0H0v100h100V34.375z"/>
</g>
</g></g><g transform="translate(360,880) scale(0.4,0.4)"><g transform="" style="fill: rgb(0, 0, 0);">
<path d="M99.999,73.426C99.999,85.11,100,100,100,100s-34.008,0-49.953-0.001c-12.452,0.001-49.952,0-49.952,0V74.931
	c0,0-2.101-65.501,13.486-73.267C37.695-10.353,99.999,45.737,99.999,73.426z"/>
</g></g><g transform="translate(440,880) scale(0.4,0.4)"><g transform="" style="fill: rgb(0, 0, 0);">
<rect width="100" height="100"/>
</g></g><g transform="translate(480,880) scale(0.4,0.4)"><g transform="" style="fill: rgb(0, 0, 0);">
<path d="M26.574,99.999C14.89,99.999,0,100,0,100s0-34.008,0.001-49.953c-0.001-12.453,0-49.953,0-49.953h25.068
	c0,0,64.501-2.101,72.268,13.486C109.354,37.695,54.264,99.999,26.574,99.999z"/>
</g></g><g transform="translate(640,880) scale(0.4,0.4)"><g transform="" style="fill: rgb(0, 0, 0);">
<path d="M73.425,0.001C85.11,0.001,100,0,100,0s0,34.008-0.001,49.953c0.001,12.452,0,49.952,0,49.952H74.931
	c0,0-65.501,2.1-73.268-13.486C-10.352,62.305,45.736,0.001,73.425,0.001z"/>
</g></g><g transform="translate(680,880) scale(0.4,0.4)"><g transform="" style="fill: rgb(0, 0, 0);">
<g>
	<path d="M100,0H0v100h65.625c9.506,0,17.611-3.354,24.316-10.059S100,75.131,100,65.625V0z"/>
</g>
</g></g><g transform="translate(800,880) scale(0.4,0.4)"><g transform="" style="fill: rgb(0, 0, 0);">
<g>
	<path d="M100,34.375V0H34.375C24.87,0,16.764,3.353,10.059,10.059S0,24.87,0,34.375V100h100V34.375z"/>
</g>
</g></g><g transform="translate(840,880) scale(0.4,0.4)"><g transform="" style="fill: rgb(0, 0, 0);">
<rect width="100" height="100"/>
</g></g><g transform="translate(880,880) scale(0.4,0.4)"><g transform="" style="fill: rgb(0, 0, 0);">
<rect width="100" height="100"/>
</g></g><g transform="translate(920,880) scale(0.4,0.4)"><g transform="" style="fill: rgb(0, 0, 0);">
<rect width="100" height="100"/>
</g></g><g transform="translate(960,880) scale(0.4,0.4)"><g transform="" style="fill: rgb(0, 0, 0);">
<rect width="100" height="100"/>
</g></g><g transform="translate(360,920) scale(0.4,0.4)"><g transform="" style="fill: rgb(0, 0, 0);">
<path d="M0.001,25.574C0.001,13.89,0-1,0-1s34.008,0,49.953,0.001c12.452-0.001,49.952,0,49.952,0v25.068
	c0,0,2.101,65.501-13.486,73.267C62.305,109.353,0.001,53.264,0.001,25.574z"/>
</g></g><g transform="translate(440,920) scale(0.4,0.4)"><g transform="" style="fill: rgb(0, 0, 0);">
<rect width="100" height="100"/>
</g></g><g transform="translate(560,920) scale(0.4,0.4)"><g transform="" style="fill: rgb(0, 0, 0);">
<g>
	<path d="M95.338,83.975C120.428,37.136,29.47-30.196,4.645,16.13C-20.399,62.878,70.625,130.076,95.338,83.975"/>
</g>
</g></g><g transform="translate(720,920) scale(0.4,0.4)"><g transform="" style="fill: rgb(0, 0, 0);">
<path d="M73.425,0.001C85.11,0.001,100,0,100,0s0,34.008-0.001,49.953c0.001,12.452,0,49.952,0,49.952H74.931
	c0,0-65.501,2.1-73.268-13.486C-10.352,62.305,45.736,0.001,73.425,0.001z"/>
</g></g><g transform="translate(760,920) scale(0.4,0.4)"><g transform="" style="fill: rgb(0, 0, 0);">
<rect width="100" height="100"/>
</g></g><g transform="translate(800,920) scale(0.4,0.4)"><g transform="" style="fill: rgb(0, 0, 0);">
<g>
	<path d="M100,0H0v100h65.625c9.506,0,17.611-3.354,24.316-10.059S100,75.131,100,65.625V0z"/>
</g>
</g></g><g transform="translate(880,920) scale(0.4,0.4)"><g transform="" style="fill: rgb(0, 0, 0);">
<g>
	<path d="M100,0H0v65.625c0,9.506,3.353,17.611,10.059,24.316S24.87,100,34.375,100H100V0z"/>
</g>
</g></g><g transform="translate(920,920) scale(0.4,0.4)"><g transform="" style="fill: rgb(0, 0, 0);">
<rect width="100" height="100"/>
</g></g><g transform="translate(960,920) scale(0.4,0.4)"><g transform="" style="fill: rgb(0, 0, 0);">
<rect width="100" height="100"/>
</g></g><g transform="translate(320,960) scale(0.4,0.4)"><g transform="" style="fill: rgb(0, 0, 0);">
<g>
	<path d="M95.338,83.975C120.428,37.136,29.47-30.196,4.645,16.13C-20.399,62.878,70.625,130.076,95.338,83.975"/>
</g>
</g></g><g transform="translate(440,960) scale(0.4,0.4)"><g transform="" style="fill: rgb(0, 0, 0);">
<g>
	<path d="M100,0H0v65.625c0,9.506,3.353,17.611,10.059,24.316S24.87,100,34.375,100H100V0z"/>
</g>
</g></g><g transform="translate(480,960) scale(0.4,0.4)"><g transform="" style="fill: rgb(0, 0, 0);">
<path d="M26.574,99.999C14.89,99.999,0,100,0,100s0-34.008,0.001-49.953c-0.001-12.453,0-49.953,0-49.953h25.068
	c0,0,64.501-2.101,72.268,13.486C109.354,37.695,54.264,99.999,26.574,99.999z"/>
</g></g><g transform="translate(640,960) scale(0.4,0.4)"><g transform="" style="fill: rgb(0, 0, 0);">
<g>
	<path d="M95.338,83.975C120.428,37.136,29.47-30.196,4.645,16.13C-20.399,62.878,70.625,130.076,95.338,83.975"/>
</g>
</g></g><g transform="translate(840,960) scale(0.4,0.4)"><g transform="" style="fill: rgb(0, 0, 0);">
<g>
	<path d="M95.338,83.975C120.428,37.136,29.47-30.196,4.645,16.13C-20.399,62.878,70.625,130.076,95.338,83.975"/>
</g>
</g></g><g transform="translate(960,960) scale(0.4,0.4)"><g transform="" style="fill: rgb(0, 0, 0);">
<path d="M0.001,25.574C0.001,13.89,0-1,0-1s34.008,0,49.953,0.001c12.452-0.001,49.952,0,49.952,0v25.068
	c0,0,2.101,65.501-13.486,73.267C62.305,109.353,0.001,53.264,0.001,25.574z"/>
</g></g><g transform="translate(0,0) scale(2.8, 2.8)"><g transform="" style="fill: rgb(0, 0, 0);">
<g>
	<rect x="15" y="15" style="fill:none;" width="70" height="70"/>
	<path d="M85,0H15H0v15v70v15h15h70h15V85V15V0H85z M85,85H15V15h70V85z"/>
</g>
</g></g><g transform="translate(720,0) scale(2.8, 2.8)"><g transform="" style="fill: rgb(0, 0, 0);">
<g>
	<rect x="15" y="15" style="fill:none;" width="70" height="70"/>
	<path d="M85,0H15H0v15v70v15h15h70h15V85V15V0H85z M85,85H15V15h70V85z"/>
</g>
</g></g><g transform="translate(0,720) scale(2.8, 2.8)"><g transform="" style="fill: rgb(0, 0, 0);">
<g>
	<rect x="15" y="15" style="fill:none;" width="70" height="70"/>
	<path d="M85,0H15H0v15v70v15h15h70h15V85V15V0H85z M85,85H15V15h70V85z"/>
</g>
</g></g><g transform="translate(80,80) scale(1.2, 1.2)"><g transform="" style="fill: rgb(0, 0, 0);">
<rect width="100" height="100"/>
</g></g><g transform="translate(800,80) scale(1.2, 1.2)"><g transform="" style="fill: rgb(0, 0, 0);">
<rect width="100" height="100"/>
</g></g><g transform="translate(80,800) scale(1.2, 1.2)"><g transform="" style="fill: rgb(0, 0, 0);">
<rect width="100" height="100"/>
</g></g></g></svg>