<svg version="1.1" xmlns="http://www.w3.org/2000/svg" viewBox="0 0 880 525" width="880" height="525">
  <!-- svg-source:excalidraw -->
  
  <defs>
    <style class="style-fonts">
      @font-face {
        font-family: "Virgil";
        src: url("https://excalidraw.com/Virgil.woff2");
      }
      @font-face {
        font-family: "Cascadia";
        src: url("https://excalidraw.com/Cascadia.woff2");
      }
    </style>
  </defs>
  <rect x="0" y="0" width="880" height="525" fill="#ffffff"></rect><g stroke-linecap="round" transform="translate(84 63.5) rotate(0 138.5 53.5)"><path d="M0.67 0.56 C75.81 0.95, 150.16 0.4, 275.7 0.89 M-0.69 0.27 C62.65 -0.52, 127.03 -0.8, 277.22 -0.54 M277.05 -0.76 C277.79 28.83, 278.42 54.16, 277.97 108.41 M277.44 0.07 C277.04 24.95, 275.89 50.49, 277.39 107.56 M278.27 107.34 C214.02 107.02, 149.68 107.48, -0.66 107.55 M277.58 107.03 C208.63 108.64, 140.63 109.23, 0.21 107.1 M1.36 108.78 C-1.61 85.72, -0.14 64.59, -1.56 -0.57 M-0.76 106.41 C-1.81 69.66, -0.77 33.51, 0.72 -0.05" stroke="#000000" stroke-width="1" fill="none"></path></g><g transform="translate(167.5 104) rotate(0 55 13)"><text x="55" y="18" font-family="Virgil, Segoe UI Emoji" font-size="20px" fill="#000000" text-anchor="middle" style="white-space: pre;" direction="ltr">Hello world!</text></g><g transform="translate(188 423) rotate(0 37 23)"><text x="0" y="32" font-family="Virgil, Segoe UI Emoji" font-size="36px" fill="#000000" text-anchor="start" style="white-space: pre;" direction="ltr">main</text></g><g stroke-opacity="0" fill-opacity="0" stroke-linecap="round" transform="translate(10 10) rotate(0 430 252.5)"><path d="M0.34 -0.43 C279.69 -1.48, 559.64 -1.98, 859.51 0.6 M-0.11 -0.36 C211.88 2.21, 424.05 2.49, 860.11 0.36 M859.92 0.71 C858.82 162.1, 859.05 325.05, 859.39 504.66 M860.25 -0.05 C860.5 183.58, 860.48 367.21, 860.11 504.69 M860.44 505.33 C671.34 504.75, 484.1 505.47, 0.61 504.48 M860.13 505.12 C559.48 504.97, 259.45 504.83, -0.34 504.85 M-0.44 504.73 C0.03 374.61, -1.36 243.72, -0.51 0.15 M0.27 504.73 C-1.56 323.75, -1.69 141.99, -0.16 0.2" stroke="#000000" stroke-width="1" fill="none"></path></g></svg>