<svg version="1.1" xmlns="http://www.w3.org/2000/svg" viewBox="0 0 880 525" width="880" height="525">
  <!-- svg-source:excalidraw -->
  
  <defs>
    <style class="style-fonts">
      @font-face {
        font-family: "Virgil";
        src: url("https://excalidraw.com/Virgil.woff2");
      }
      @font-face {
        font-family: "Cascadia";
        src: url("https://excalidraw.com/Cascadia.woff2");
      }
    </style>
  </defs>
  <rect x="0" y="0" width="880" height="525" fill="#ffffff"></rect><g stroke-linecap="round" transform="translate(84 63.5) rotate(0 138.5 53.5)"><path d="M0.67 0.56 C75.81 0.95, 150.16 0.4, 275.7 0.89 M-0.69 0.27 C62.65 -0.52, 127.03 -0.8, 277.22 -0.54 M277.05 -0.76 C277.79 28.83, 278.42 54.16, 277.97 108.41 M277.44 0.07 C277.04 24.95, 275.89 50.49, 277.39 107.56 M278.27 107.34 C214.02 107.02, 149.68 107.48, -0.66 107.55 M277.58 107.03 C208.63 108.64, 140.63 109.23, 0.21 107.1 M1.36 108.78 C-1.61 85.72, -0.14 64.59, -1.56 -0.57 M-0.76 106.41 C-1.81 69.66, -0.77 33.51, 0.72 -0.05" stroke="#000000" stroke-width="1" fill="none"></path></g><g transform="translate(167.5 104) rotate(0 55 13)"><text x="55" y="18" font-family="Virgil, Segoe UI Emoji" font-size="20px" fill="#000000" text-anchor="middle" style="white-space: pre;" direction="ltr">Hello world!</text></g><g stroke-linecap="round" transform="translate(83.5 281.5) rotate(0 138.5 53.5)"><path d="M-1.04 -0.01 C86.51 -0.98, 170.32 -0.66, 277.77 -0.81 M-0.26 0.33 C66.12 -0.06, 132.58 -0.78, 276.63 0.76 M278.07 1.24 C276.58 41.31, 277.91 81.39, 275.09 105.09 M277.96 0.92 C277.76 27.66, 277.04 57.35, 277.8 106.94 M277.55 106.17 C212.93 105.63, 149.49 107.55, 0.72 106.09 M277.7 107.32 C215.05 109.34, 153.42 109.7, 0.28 106.65 M-1.03 108.51 C0.81 84.32, -0.93 61.48, 1.68 1.59 M-0.88 106.79 C0.61 64.21, 0.78 21.88, -0.04 -0.11" stroke="#000000" stroke-width="1" fill="none"></path></g><g transform="translate(171.5 322) rotate(0 50.5 13)"><text x="50.5" y="18" font-family="Virgil, Segoe UI Emoji" font-size="20px" fill="#000000" text-anchor="middle" style="white-space: pre;" direction="ltr">Hello YOU!</text></g><g stroke-linecap="round"><g transform="translate(225.70180194959335 186.00000000000006) rotate(0 -0.00985468944799095 39.142514254674296)"><path d="M0.75 0.04 C0.86 13.06, 0.26 66.01, 0.09 79.27 M-0.31 -0.99 C-0.3 12.16, -0.64 64.2, -0.79 77.29" stroke="#000000" stroke-width="1" fill="none"></path></g><g transform="translate(225.70180194959335 186.00000000000006) rotate(0 -0.00985468944799095 39.142514254674296)"><path d="M-10.75 49.24 C-7.53 55.75, -4.43 64.64, -2.41 77.2 M-11.37 49.4 C-8.58 58.33, -4.89 66.71, -1.61 76.63" stroke="#000000" stroke-width="1" fill="none"></path></g><g transform="translate(225.70180194959335 186.00000000000006) rotate(0 -0.00985468944799095 39.142514254674296)"><path d="M9.77 49.41 C7.76 56.01, 5.63 64.85, -2.41 77.2 M9.15 49.57 C5.26 58.57, 2.27 66.9, -1.61 76.63" stroke="#000000" stroke-width="1" fill="none"></path></g></g><g stroke-linecap="round" transform="translate(506.5 282.5) rotate(0 138.5 53.5)"><path d="M1.09 -0.85 C106.63 -0.23, 211.51 -2.13, 277.69 1.01 M-0.31 0.61 C60.45 0.24, 120.33 -0.44, 277.65 -0.4 M278.84 0.26 C276.96 35.47, 276.25 72.16, 277.32 106.38 M277.55 0.43 C276.22 25, 277.16 51.44, 276.86 107.1 M278.4 107.55 C199.8 107.44, 121.72 108.04, -0.22 107.68 M277.18 107.08 C216.52 108.18, 157.06 107.45, -0.74 106.45 M0.27 105.54 C-1.06 74.77, -0.11 38.06, -0.76 0.67 M0.62 107.9 C0.92 77.65, 1.48 49.42, -0.19 0.56" stroke="#087f5b" stroke-width="1" fill="none"></path></g><g transform="translate(580.5 323) rotate(0 64.5 13)"><text x="64.5" y="18" font-family="Virgil, Segoe UI Emoji" font-size="20px" fill="#087f5b" text-anchor="middle" style="white-space: pre;" direction="ltr">Hello THERE!</text></g><g stroke-linecap="round"><g transform="translate(637.8486170076922 173.91255703769627) rotate(0 0.2768958247336286 46.6017874640161)"><path d="M-0.49 -1.06 C-0.48 14.57, -0.12 78.56, -0.35 94.26 M1.45 1 C1.4 16.25, -0.76 77, -0.9 92.55" stroke="#087f5b" stroke-width="1" fill="none"></path></g><g transform="translate(637.8486170076922 173.91255703769627) rotate(0 0.2768958247336286 46.6017874640161)"><path d="M-12.25 65.39 C-6.5 70.46, -5.76 81.19, -0.82 93.13 M-10.86 63.67 C-7.57 74.41, -3.33 83.43, -1.06 92.26" stroke="#087f5b" stroke-width="1" fill="none"></path></g><g transform="translate(637.8486170076922 173.91255703769627) rotate(0 0.2768958247336286 46.6017874640161)"><path d="M8.26 65.87 C8.54 70.74, 3.8 81.33, -0.82 93.13 M9.66 64.15 C5.96 74.77, 3.22 83.63, -1.06 92.26" stroke="#087f5b" stroke-width="1" fill="none"></path></g></g><g stroke-linecap="round"><g transform="translate(363 137) rotate(0 115.8378989774734 -1.6784583825618)"><path d="M-0.48 0.73 C38.06 -0.12, 193.66 -3.46, 232.16 -4.09 M1.46 0.07 C39.87 -0.06, 193.82 -1.77, 231.82 -2.6" stroke="#087f5b" stroke-width="1" fill="none"></path></g></g><g transform="translate(582 427) rotate(0 54.5 18)"><text x="0" y="25" font-family="Virgil, Segoe UI Emoji" font-size="28px" fill="#087f5b" text-anchor="start" style="white-space: pre;" direction="ltr">feature</text></g><g transform="translate(188 423) rotate(0 37 23)"><text x="0" y="32" font-family="Virgil, Segoe UI Emoji" font-size="36px" fill="#000000" text-anchor="start" style="white-space: pre;" direction="ltr">main</text></g><g stroke-opacity="0" fill-opacity="0" stroke-linecap="round" transform="translate(10 10) rotate(0 430 252.5)"><path d="M0.34 -0.43 C279.69 -1.48, 559.64 -1.98, 859.51 0.6 M-0.11 -0.36 C211.88 2.21, 424.05 2.49, 860.11 0.36 M859.92 0.71 C858.82 162.1, 859.05 325.05, 859.39 504.66 M860.25 -0.05 C860.5 183.58, 860.48 367.21, 860.11 504.69 M860.44 505.33 C671.34 504.75, 484.1 505.47, 0.61 504.48 M860.13 505.12 C559.48 504.97, 259.45 504.83, -0.34 504.85 M-0.44 504.73 C0.03 374.61, -1.36 243.72, -0.51 0.15 M0.27 504.73 C-1.56 323.75, -1.69 141.99, -0.16 0.2" stroke="#000000" stroke-width="1" fill="none"></path></g><g stroke-linecap="round"><g transform="translate(377.14048582673354 267.89821253598393) rotate(0 114.55884142673295 -55.52922694496533)"><path d="M0.95 1.13 C39.1 -17.42, 190.94 -91.53, 229.13 -110.22 M-0.01 0.67 C37.96 -17.74, 189.91 -93.74, 228.21 -112.18" stroke="#087f5b" stroke-width="1" fill="none"></path></g><g transform="translate(377.14048582673354 267.89821253598393) rotate(0 114.55884142673295 -55.52922694496533)"><path d="M209.32 -90.42 C214.43 -95.96, 219.74 -105.81, 229.8 -110.25 M207.89 -89.66 C212.17 -96.33, 219.22 -103.61, 228.69 -111.39" stroke="#087f5b" stroke-width="1" fill="none"></path></g><g transform="translate(377.14048582673354 267.89821253598393) rotate(0 114.55884142673295 -55.52922694496533)"><path d="M200.26 -108.84 C208.44 -108.53, 216.66 -112.48, 229.8 -110.25 M198.83 -108.07 C205.75 -109.61, 215.34 -111.73, 228.69 -111.39" stroke="#087f5b" stroke-width="1" fill="none"></path></g></g><g stroke-linecap="round" transform="translate(614 117) rotate(0 24 19.5)"><path d="M14.78 0.8 C18.98 -1.14, 25.79 -1.19, 30.57 0.32 C35.36 1.83, 40.67 6.36, 43.48 9.87 C46.3 13.38, 47.83 17.55, 47.44 21.39 C47.05 25.23, 44.94 29.97, 41.13 32.92 C37.32 35.88, 30.05 38.86, 24.6 39.12 C19.15 39.38, 12.49 36.98, 8.45 34.49 C4.4 31.99, 1.34 28.29, 0.33 24.15 C-0.67 20, -0.85 13.5, 2.4 9.62 C5.65 5.74, 16.23 2.27, 19.84 0.87 C23.45 -0.54, 24.04 1.09, 24.05 1.18 M29.8 0.24 C34.68 1.08, 40.59 4.45, 43.41 7.87 C46.22 11.29, 46.76 16.52, 46.69 20.77 C46.62 25.03, 45.97 30.37, 43 33.41 C40.02 36.44, 34.07 38.73, 28.82 38.98 C23.58 39.22, 15.89 37.14, 11.53 34.9 C7.16 32.66, 4.5 29.29, 2.66 25.55 C0.82 21.81, -0.93 16.32, 0.46 12.45 C1.85 8.58, 6.38 4.25, 11.01 2.33 C15.65 0.41, 25.5 1.37, 28.28 0.94 C31.06 0.5, 27.78 -0.39, 27.69 -0.29" stroke="#087f5b" stroke-width="1" fill="none"></path></g></svg>